<svg version="1.1" id="Layer_1" xmlns="http://www.w3.org/2000/svg" xmlns:xlink="http://www.w3.org/1999/xlink" x="0px" y="0px"
	 width="100%" viewBox="0 0 840 557" enable-background="new 0 0 840 557" xml:space="preserve">
<path fill="#FFFFFF" opacity="1.000000" stroke="none" 
	d="
M527.000000,558.000000 
	C351.333344,558.000000 176.166672,558.000000 1.000000,558.000000 
	C1.000000,372.333344 1.000000,186.666672 1.000000,1.000000 
	C281.000000,1.000000 561.000000,1.000000 841.000000,1.000000 
	C841.000000,186.666672 841.000000,372.333344 841.000000,558.000000 
	C736.500000,558.000000 632.000000,558.000000 527.000000,558.000000 
M375.500000,5.001507 
	C258.020447,4.999399 140.540771,5.072888 23.061651,4.848475 
	C13.883343,4.830943 7.835770,10.740782 7.846915,20.172359 
	C8.049144,191.309265 8.051125,362.446533 7.841286,533.583435 
	C7.829350,543.317566 13.808907,549.160767 23.316334,549.154114 
	C288.103851,548.968689 552.891541,548.966064 817.679077,549.147461 
	C827.186157,549.153992 833.163757,543.322205 833.151611,533.583374 
	C832.938599,362.613098 832.931946,191.642456 833.146179,20.672220 
	C833.158752,10.619589 827.260193,4.840936 817.423706,4.855663 
	C670.449402,5.075711 523.474670,5.004179 375.500000,5.001507 
z"/>
<path fill="#E5D5F8" opacity="1.000000" stroke="none" 
	d="
M376.000000,5.001447 
	C523.474670,5.004179 670.449402,5.075711 817.423706,4.855663 
	C827.260193,4.840936 833.158752,10.619589 833.146179,20.672220 
	C832.931946,191.642456 832.938599,362.613098 833.151611,533.583374 
	C833.163757,543.322205 827.186157,549.153992 817.679077,549.147461 
	C552.891541,548.966064 288.103851,548.968689 23.316334,549.154114 
	C13.808907,549.160767 7.829350,543.317566 7.841286,533.583435 
	C8.051125,362.446533 8.049144,191.309265 7.846915,20.172359 
	C7.835770,10.740782 13.883343,4.830943 23.061651,4.848475 
	C140.540771,5.072888 258.020447,4.999399 376.000000,5.001447 
M467.865692,151.630859 
	C466.330261,150.634399 464.825928,149.585785 463.254822,148.649200 
	C435.515869,132.113403 398.392395,148.755951 393.314850,182.811920 
	C391.359619,195.925735 387.300568,207.581787 378.233826,217.384720 
	C376.990295,218.729218 376.569031,220.839127 375.785278,222.602753 
	C374.716583,225.007584 374.231293,227.967712 372.515411,229.741058 
	C360.932495,241.711929 349.070679,253.412567 337.361603,265.262390 
	C336.120361,266.518555 334.960907,268.044891 334.311523,269.665466 
	C330.353302,279.543610 326.435303,289.442352 322.805756,299.443726 
	C322.119385,301.335114 321.959778,304.560974 323.060272,305.644775 
	C324.224182,306.791077 327.426117,306.793671 329.317719,306.118622 
	C338.555969,302.821777 347.717560,299.283783 356.765167,295.494171 
	C359.739349,294.248413 362.662720,292.374329 364.970428,290.130463 
	C376.077484,279.330566 386.957916,268.297791 397.938446,257.367432 
	C400.456818,254.860596 402.472290,251.779037 407.180054,253.355362 
	C408.789429,253.894241 411.784760,252.259232 413.308960,250.763550 
	C422.204742,242.034317 433.032837,238.330475 445.165588,236.902618 
	C456.922546,235.518982 467.293640,230.569809 475.157959,221.507874 
	C490.929871,203.334259 493.594055,171.182037 467.865692,151.630859 
M176.047089,380.502014 
	C176.940063,384.380676 177.631927,388.323395 178.836426,392.102783 
	C179.251328,393.404694 181.156631,395.379425 182.020157,395.209808 
	C189.230606,393.793091 196.956390,394.682068 203.352753,389.536407 
	C212.979218,381.792206 218.676056,361.180420 213.847778,349.756287 
	C208.338089,336.719879 196.794830,334.633820 187.119476,345.096283 
	C184.535553,347.890350 182.573288,351.259369 180.277985,354.430237 
	C180.277985,350.871399 180.136169,347.543579 180.323624,344.234406 
	C180.469147,341.665405 181.817810,338.381989 177.926422,338.111816 
	C176.820038,338.034973 175.377701,341.445068 174.278778,343.364532 
	C173.907578,344.012878 174.035004,345.000580 174.080154,345.825256 
	C174.697189,357.096558 175.339783,368.366486 176.047089,380.502014 
M374.825348,339.249329 
	C370.624237,345.096222 366.423096,350.943115 361.980408,357.126221 
	C359.897034,352.189850 358.082550,347.383575 355.815063,342.801453 
	C355.053253,341.262085 353.138641,340.293152 351.750916,339.063507 
	C350.585419,340.506348 348.729553,341.792664 348.361450,343.416290 
	C344.760345,359.300201 344.200195,375.429779 345.366272,391.609253 
	C345.495911,393.407990 347.609467,395.063721 348.802948,396.785767 
	C349.677155,394.917053 351.238922,393.074982 351.312439,391.175262 
	C351.743530,380.036224 351.800751,368.883057 352.059174,357.736420 
	C352.093079,356.273163 352.556183,354.819855 352.820496,353.361908 
	C355.207001,356.750000 356.418457,360.210510 358.165253,363.375549 
	C359.012817,364.911346 360.752411,366.647858 362.296326,366.874359 
	C363.413879,367.038300 365.240021,365.094452 366.112762,363.693481 
	C368.720062,359.508331 371.013580,355.127716 373.429657,350.823425 
	C374.671997,352.755066 374.848846,354.495972 374.948151,356.241272 
	C375.638885,368.384064 376.221893,380.534485 377.101807,392.663391 
	C377.220520,394.299530 378.806732,395.829193 379.713409,397.408173 
	C380.820190,396.036377 382.937103,394.621552 382.880737,393.299347 
	C382.149872,376.154449 381.141724,359.020813 380.117462,341.889526 
	C379.946136,339.024231 378.471161,337.577484 374.825348,339.249329 
M659.289185,346.918243 
	C658.046814,357.923065 656.804443,368.927887 655.562134,379.932678 
	C655.146973,379.972565 654.731873,380.012421 654.316711,380.052277 
	C653.207947,377.189484 651.996277,374.361603 651.009338,371.457367 
	C647.911499,362.341675 645.036621,353.146637 641.726990,344.109894 
	C641.121094,342.455658 638.880066,341.400238 637.393799,340.068390 
	C636.244812,341.665833 634.553528,343.113983 634.063904,344.892853 
	C633.144470,348.233307 632.657227,351.749512 632.453674,355.219788 
	C631.762634,366.998108 631.128052,378.785095 630.871826,390.577484 
	C630.835144,392.264465 633.001831,393.999329 634.148743,395.712036 
	C635.045654,393.975616 636.174011,392.312683 636.756775,390.476562 
	C637.134460,389.286438 636.615601,387.839355 636.668884,386.514282 
	C637.065613,376.656616 637.504944,366.800720 637.930847,356.944244 
	C638.463257,356.862610 638.995667,356.781006 639.528076,356.699371 
	C640.349731,358.902100 641.175171,361.103424 641.992493,363.307770 
	C645.510986,372.797760 648.912048,382.334564 652.663635,391.731476 
	C653.251831,393.204803 655.427917,394.044159 656.869751,395.176605 
	C657.934692,393.705292 659.643311,392.356079 659.949707,390.740875 
	C661.094604,384.704132 661.860657,378.590271 662.619263,372.486725 
	C663.726807,363.576874 664.835571,354.662292 665.612610,345.720917 
	C665.744934,344.197784 664.220398,342.530640 663.461304,340.930054 
	C662.212219,342.153870 660.923584,343.341400 659.742065,344.627319 
	C659.452454,344.942535 659.512878,345.579407 659.289185,346.918243 
M333.577576,351.971558 
	C330.446686,344.270172 327.139679,335.998596 317.302307,335.994263 
	C306.924255,335.989685 303.214569,344.596252 299.644226,352.639648 
	C299.576630,352.791901 299.506012,352.943512 299.450836,353.100403 
	C295.724060,363.696777 295.108063,374.568787 296.732391,385.598785 
	C297.117188,388.211670 297.749451,390.839294 298.701904,393.291595 
	C299.068665,394.235901 300.984680,395.493042 301.595123,395.227783 
	C302.689514,394.752167 303.734802,393.335175 304.044250,392.119110 
	C304.342072,390.948730 303.527924,389.541718 303.469727,388.226807 
	C303.140381,380.787384 302.724701,373.343109 302.780334,365.903839 
	C302.789551,364.673126 304.938293,362.452240 306.169708,362.400879 
	C313.931458,362.077209 321.713379,362.236877 329.600403,362.236877 
	C329.872345,364.136383 330.153748,364.945770 330.073181,365.717316 
	C329.232178,373.772095 328.232422,381.812042 327.532471,389.878296 
	C327.387268,391.551605 328.295013,393.316284 328.717499,395.038849 
	C330.217896,393.878754 331.806183,392.811218 333.174500,391.512024 
	C333.704956,391.008240 333.773071,389.990173 333.992432,389.190155 
	C337.329803,377.019318 337.260437,364.859619 333.577576,351.971558 
M392.991577,386.561737 
	C393.310425,388.361603 393.256653,390.352844 394.054565,391.906677 
	C394.826904,393.410736 396.475616,394.464783 397.739380,395.716492 
	C398.512390,394.117889 399.897400,392.530701 399.927490,390.918243 
	C399.985077,387.829407 399.272675,384.726227 398.829529,381.232544 
	C400.865356,381.140198 402.492889,381.086456 404.117859,380.989471 
	C419.464844,380.073303 429.981171,366.571869 426.995514,351.626190 
	C425.017303,341.723541 415.573151,337.671021 407.283173,343.420319 
	C404.755585,345.173248 402.864960,347.855530 400.726135,350.152679 
	C399.910583,351.028625 399.216980,352.018097 397.946381,353.608398 
	C397.946381,350.380127 398.308197,348.017242 397.828491,345.839752 
	C397.464294,344.186432 396.029114,342.769012 395.070435,341.246613 
	C394.000427,342.630981 391.993866,344.023285 392.005554,345.398468 
	C392.119781,358.833771 392.570892,372.266235 392.991577,386.561737 
M245.036850,387.649506 
	C245.610275,386.291626 246.183701,384.933746 246.757126,383.575867 
	C245.294464,383.135590 243.852051,382.449005 242.363251,382.326569 
	C240.968033,382.211823 239.523727,382.694244 238.101013,382.913849 
	C239.272003,380.855957 240.806671,379.952515 242.197296,378.864868 
	C250.071167,372.706421 255.309677,365.143097 254.266327,354.611481 
	C253.788361,349.786926 252.086777,345.392181 246.827972,343.860718 
	C241.665115,342.357117 237.849701,345.067291 234.459625,348.512787 
	C233.286270,349.705322 232.312897,351.094604 231.248184,352.394043 
	C230.604950,350.299774 231.153397,348.594147 230.831192,347.072968 
	C230.406265,345.066895 229.298004,343.205597 228.483505,341.282043 
	C227.258331,342.884216 225.073196,344.426697 224.969193,346.098663 
	C224.433289,354.713837 224.016190,363.379761 224.379257,371.993317 
	C224.650497,378.428284 225.997940,384.845123 227.275101,391.187683 
	C227.534439,392.475555 229.623444,393.394958 230.868988,394.484192 
	C231.655319,393.099792 232.538422,391.758453 233.182373,390.310730 
	C233.455841,389.695923 233.227997,388.858093 233.227997,388.918915 
	C237.278641,388.576202 240.784363,388.279602 245.036850,387.649506 
M580.143738,389.553833 
	C582.235535,387.745941 581.672668,383.523224 585.962463,383.525665 
	C587.018738,383.526276 588.076050,381.637573 589.132874,380.617432 
	C588.026123,379.624237 587.021118,377.948273 585.793579,377.765228 
	C582.032410,377.204346 578.179199,377.012177 574.376648,377.135742 
	C573.298279,377.170746 571.808533,378.605408 571.394104,379.726105 
	C571.146912,380.394440 572.470032,381.881042 573.379272,382.658020 
	C574.011414,383.198212 575.140137,383.157196 576.096436,383.387756 
	C573.445496,389.287628 570.266907,392.121399 566.163086,392.368469 
	C560.739014,392.695038 557.469543,389.484589 555.086426,385.239746 
	C549.387207,375.088318 549.290100,364.505676 553.803406,354.016388 
	C558.230896,343.726440 564.150513,342.218933 573.639343,348.030396 
	C574.793518,348.737244 576.811890,348.032990 578.429749,347.982697 
	C578.119385,346.508850 578.282959,344.627594 577.422546,343.626495 
	C571.305359,336.509308 561.733093,336.076721 554.813660,342.392090 
	C543.996094,352.265289 541.395020,373.020782 549.175476,387.382324 
	C556.561035,401.014954 569.956238,402.239746 580.143738,389.553833 
M472.909973,393.244476 
	C470.782257,386.789429 468.402466,380.401825 466.648987,373.846649 
	C465.932373,371.167633 465.971619,367.959747 466.713440,365.282440 
	C468.483582,358.894012 471.076630,352.734985 472.889160,346.355957 
	C473.400299,344.557007 472.958282,340.986816 471.924622,340.523254 
	C468.461029,338.970062 468.080200,342.544891 467.246399,344.665466 
	C465.553009,348.972290 464.130798,353.385742 462.596802,357.755280 
	C460.100159,352.228638 458.778015,346.774750 457.000244,341.473602 
	C456.575867,340.208160 454.631287,339.452515 453.385864,338.462402 
	C452.714325,339.930817 451.610840,341.364929 451.490723,342.877167 
	C451.366333,344.442780 452.016815,346.156891 452.636139,347.681061 
	C458.386810,361.833893 459.147491,375.821716 452.030853,389.856873 
	C451.340881,391.217590 452.892090,393.714661 453.402985,395.684235 
	C454.818085,394.334290 456.747742,393.231812 457.540710,391.582703 
	C459.171936,388.190399 460.195343,384.505798 461.900848,379.732361 
	C463.943024,385.187469 465.325500,389.261292 466.992889,393.214935 
	C468.349854,396.432556 470.336792,397.376648 472.909973,393.244476 
M501.311096,396.990234 
	C503.033112,395.820343 506.249298,394.588135 506.203583,393.492004 
	C506.052277,389.866211 502.755035,390.841400 500.380951,390.938293 
	C498.560364,391.012573 496.713226,391.716339 494.950562,391.512299 
	C493.609619,391.357086 491.407166,390.380127 491.256683,389.487457 
	C489.802216,380.859650 488.701019,372.172272 487.498871,363.501923 
	C488.046997,363.664581 488.595154,363.827209 489.143280,363.989868 
	C491.113647,362.351288 493.084045,360.712708 495.054382,359.074097 
	C493.140076,357.670166 491.225769,356.266266 488.571533,354.319702 
	C488.970825,351.290955 489.501709,347.263885 490.026123,343.286072 
	C494.682129,343.286072 498.676849,343.510132 502.623169,343.170990 
	C504.111633,343.043060 505.488098,341.611908 506.915619,340.774811 
	C505.619720,339.561462 504.444580,337.502838 503.004791,337.297180 
	C499.077087,336.736145 495.037018,336.980957 491.042755,336.862213 
	C486.567017,336.729218 484.580017,338.969879 483.815002,343.317902 
	C481.359833,357.272247 481.717773,371.169739 484.007019,385.074524 
	C486.226837,398.557465 486.977722,399.085510 501.311096,396.990234 
M603.969971,354.348358 
	C605.378357,339.812592 603.908325,343.392120 615.983032,343.122437 
	C616.480225,343.111328 617.070007,343.378082 617.461792,343.191040 
	C619.052795,342.431427 620.583191,341.545135 622.135986,340.705566 
	C620.663147,339.504608 619.297485,337.471527 617.696594,337.265350 
	C613.600708,336.737976 609.399658,337.047821 605.241516,336.976929 
	C601.790466,336.918060 599.924377,338.877441 599.393921,341.976715 
	C596.437073,359.253143 596.647705,376.457977 601.430847,393.400787 
	C601.940918,395.207733 604.374390,397.668243 605.999756,397.733643 
	C610.423279,397.911621 614.923340,397.139252 619.318298,396.335022 
	C620.294922,396.156342 620.964050,394.298065 621.774719,393.213104 
	C620.660156,392.418060 619.578003,391.012756 618.424500,390.951538 
	C615.799805,390.812195 613.103394,391.702209 610.508850,391.443481 
	C609.006592,391.293701 606.574280,389.897308 606.394226,388.769318 
	C605.191284,381.230164 604.368958,373.621552 603.740967,366.009247 
	C603.652039,364.930756 605.183228,363.610229 606.153320,362.579254 
	C607.453552,361.197418 608.937744,359.988678 610.342896,358.705597 
	C608.744751,357.855164 607.141907,357.013428 605.551208,356.149323 
	C605.027283,355.864777 604.534912,355.522339 603.969971,354.348358 
M263.429932,377.043152 
	C264.528442,382.567413 265.285034,388.195557 266.914551,393.558472 
	C267.470062,395.386597 270.149597,397.668915 271.982758,397.785095 
	C276.056274,398.043274 280.243042,397.244934 284.304626,396.465668 
	C285.364502,396.262329 286.134369,394.547485 287.037445,393.526855 
	C285.868347,392.622925 284.762177,391.073578 283.516846,390.952209 
	C281.083679,390.715057 278.535004,391.082672 276.104187,391.558075 
	C273.446991,392.077789 271.921906,391.388672 271.550934,388.600220 
	C270.440491,380.253174 269.311920,371.908569 268.190460,363.562988 
	C268.676178,363.695007 269.161896,363.827057 269.647614,363.959106 
	C271.697723,362.376282 273.747864,360.793457 275.797974,359.210632 
	C273.711334,357.759186 271.624695,356.307739 269.110779,354.559082 
	C269.358643,352.449158 269.834717,349.658813 269.975464,346.851685 
	C270.122742,343.913910 271.361481,342.706512 274.349823,342.982178 
	C277.323181,343.256470 280.357513,343.516937 283.301117,343.196259 
	C284.794189,343.033600 286.146301,341.577179 287.562134,340.705627 
	C286.245270,339.514130 285.065979,337.551361 283.583740,337.286865 
	C280.180878,336.679749 276.629059,336.774902 273.140076,336.811584 
	C266.432800,336.882141 264.697144,338.020081 264.238831,344.778137 
	C263.531982,355.200623 263.571259,365.673676 263.429932,377.043152 
M521.845337,381.370667 
	C521.805237,377.385223 521.521423,373.384186 521.776001,369.417633 
	C522.296814,361.302277 523.251160,353.213013 523.674927,345.094635 
	C523.758850,343.487061 522.262268,341.796967 521.494507,340.144897 
	C520.297485,341.226349 518.251953,342.159149 518.032471,343.411835 
	C515.352722,358.707001 514.537537,374.113647 516.289795,389.581848 
	C516.694214,393.151825 518.647461,395.314362 522.643921,395.048920 
	C525.457397,394.862030 528.387512,395.363739 531.076721,394.741730 
	C532.949951,394.308411 534.503052,392.491394 536.199158,391.292511 
	C534.348083,390.381775 532.567139,388.950500 530.628540,388.689423 
	C528.091187,388.347626 525.429199,388.930359 522.322815,389.150726 
	C522.154419,386.559631 522.016968,384.444702 521.845337,381.370667 
M436.442383,384.266418 
	C436.647644,386.912231 436.577118,389.624390 437.190247,392.172028 
	C437.445190,393.231384 439.073853,394.413025 440.242279,394.622742 
	C440.900269,394.740845 442.240845,393.122955 442.641449,392.050812 
	C443.078217,390.881958 442.828247,389.438873 442.800690,388.116943 
	C442.544922,375.840942 442.258179,363.565521 442.015259,351.289276 
	C441.956177,348.304443 442.268738,345.287476 441.911285,342.345947 
	C441.775299,341.226868 440.235352,340.278442 439.335205,339.252228 
	C438.299530,340.172272 437.049988,340.949341 436.304962,342.063690 
	C435.825256,342.781189 436.018036,343.994751 436.026367,344.984985 
	C436.133606,357.762604 436.261871,370.540070 436.442383,384.266418 
M439.636475,133.574539 
	C442.730194,133.654358 444.270233,132.114777 444.283630,129.052139 
	C444.303284,124.558479 444.657013,120.018600 444.101593,115.594681 
	C443.892914,113.932198 441.541504,112.538727 440.166992,111.022629 
	C438.796509,112.568993 436.457153,113.993263 436.243896,115.685448 
	C435.686462,120.108894 435.828461,124.668198 436.190948,129.132797 
	C436.310333,130.603302 437.958405,131.949707 439.636475,133.574539 
M478.449005,231.430969 
	C482.115387,235.623154 485.567169,240.040573 489.582520,243.866486 
	C490.745422,244.974518 494.122772,245.273087 495.436310,244.387436 
	C498.029846,242.638779 496.996246,240.070633 494.976044,238.055573 
	C492.037689,235.124802 489.183777,232.104492 486.156525,229.268982 
	C482.808258,226.132797 481.212769,226.504211 478.449005,231.430969 
M495.971588,134.431946 
	C493.820374,132.117294 491.573914,132.401077 489.485352,134.403015 
	C486.262421,137.492188 482.859436,140.473587 480.151276,143.978561 
	C479.133514,145.295776 479.842194,147.946976 479.763794,149.990021 
	C481.832306,149.831268 484.487640,150.427902 485.854492,149.366013 
	C489.352692,146.648178 492.451782,143.340302 495.332489,139.947464 
	C496.278046,138.833801 496.062714,136.734512 495.971588,134.431946 
M400.631439,144.103241 
	C397.561218,141.046783 394.729980,137.676239 391.312439,135.076355 
	C389.777161,133.908386 386.451172,133.286453 385.028290,134.170990 
	C382.412842,135.796951 383.438324,138.507217 385.443909,140.520828 
	C388.383942,143.472626 391.159027,146.644897 394.415924,149.198349 
	C395.801971,150.285049 398.228485,150.044693 400.182159,150.407425 
	C400.480896,148.504837 400.779602,146.602234 400.631439,144.103241 
M515.832947,192.851242 
	C516.518860,191.030457 518.009338,189.009933 517.623352,187.455261 
	C517.340271,186.314880 514.641541,185.233856 512.939758,185.093552 
	C508.837128,184.755249 504.638275,184.615341 500.580658,185.159470 
	C498.869019,185.389008 496.441711,187.301453 496.052155,188.873291 
	C495.297028,191.920135 497.622437,193.154907 500.580048,193.115311 
	C505.370056,193.051178 510.160980,193.054657 515.832947,192.851242 
M239.762970,424.477692 
	C238.677460,427.193848 237.591949,429.910004 236.458878,432.745117 
	C235.391724,429.841949 234.351273,427.011475 233.310837,424.181000 
	C232.847061,424.171600 232.383286,424.162201 231.919510,424.152802 
	C230.801849,426.946381 229.684189,429.739929 228.558197,432.554382 
	C226.453171,430.024017 228.194122,425.675903 223.090668,423.843811 
	C223.747604,426.546082 223.989853,428.450958 224.681931,430.175293 
	C225.705307,432.725098 227.048248,435.146606 228.255127,437.622742 
	C229.811432,435.585724 231.367722,433.548737 232.928238,431.506195 
	C233.355301,432.730408 233.553925,434.570374 234.546082,435.733459 
	C235.311127,436.630188 237.072586,436.676971 238.390991,437.101654 
	C239.085388,432.873718 239.779785,428.645752 239.762970,424.477692 
M542.073486,435.857178 
	C542.979187,438.301697 544.123230,438.327759 544.917236,435.912323 
	C545.427917,434.358643 545.335693,432.606720 545.656616,429.609009 
	C547.355774,433.250763 548.396484,435.481323 549.870911,438.641357 
	C551.406128,435.115967 552.431763,432.760925 553.581848,430.119995 
	C554.280823,433.053650 554.844604,435.419769 555.408386,437.785889 
	C556.081970,437.700836 556.755615,437.615753 557.429199,437.530701 
	C557.125488,433.571442 556.883972,429.605133 556.438354,425.661896 
	C556.383179,425.174408 555.134827,424.363007 554.625671,424.484161 
	C553.663574,424.713104 552.490662,425.311768 552.028564,426.115234 
	C551.157654,427.629364 550.728882,429.397736 550.101746,431.099854 
	C547.145813,429.408234 549.242432,422.672638 543.156067,424.936554 
	C542.794495,428.430420 542.453064,431.729614 542.073486,435.857178 
M506.839294,433.834381 
	C507.288788,435.132355 507.738281,436.430328 508.187805,437.728302 
	C508.751526,437.566284 509.315247,437.404236 509.878967,437.242188 
	C509.509460,433.059204 509.139984,428.876221 508.775757,424.752960 
	C502.680145,423.189941 504.720459,429.299225 501.857574,431.115387 
	C501.217651,429.380524 500.984467,427.368530 499.870972,426.184113 
	C499.041718,425.302124 497.073059,425.491333 495.611908,425.203491 
	C495.288879,429.269745 494.965851,433.335968 494.642792,437.402222 
	C495.380829,437.492737 496.118866,437.583221 496.856903,437.673737 
	C497.292145,435.270172 497.727417,432.866638 498.319397,429.597565 
	C499.631287,432.862274 500.618713,435.319550 502.056396,438.897278 
	C503.670959,435.403687 504.684845,433.209839 506.073700,430.204620 
	C506.466156,431.800903 506.617279,432.415497 506.839294,433.834381 
M379.690826,437.525482 
	C380.343475,435.312134 380.996124,433.098755 381.838715,430.241272 
	C378.724518,430.415985 376.881775,430.519348 374.091858,430.675842 
	C375.252502,431.984772 375.565857,432.526123 376.034576,432.817657 
	C376.579559,433.156616 377.260742,433.276611 377.882843,433.491638 
	C377.777252,433.969574 377.671692,434.447510 377.566132,434.925446 
	C375.835236,434.650848 373.821594,434.815308 372.473145,433.946869 
	C371.578644,433.370758 371.057495,431.169281 371.367157,429.948578 
	C372.778290,424.385986 377.161743,428.559998 380.621643,427.899109 
	C378.431122,424.126373 375.721344,423.453522 372.446869,424.670532 
	C368.922760,425.980347 367.776855,428.841919 368.376740,432.299438 
	C369.002991,435.908783 371.495270,437.692963 375.083069,437.783844 
	C376.359863,437.816193 377.648315,437.388428 379.690826,437.525482 
M435.207092,425.191864 
	C435.207092,429.234955 435.207092,433.278015 435.207092,438.984711 
	C438.974945,437.358643 443.228394,436.869965 444.095734,434.894562 
	C446.631958,429.118164 442.213470,424.156158 435.207092,425.191864 
M579.376526,436.108215 
	C582.817139,436.646576 586.257751,437.184906 589.777710,437.735687 
	C589.777710,434.904358 589.777710,432.828796 589.777710,430.233093 
	C587.581970,430.481293 585.744019,430.688995 583.906067,430.896729 
	C583.897156,431.317017 583.888245,431.737305 583.879272,432.157593 
	C584.852783,432.628571 585.826294,433.099548 586.799744,433.570526 
	C586.735413,433.995880 586.671082,434.421234 586.606750,434.846588 
	C584.855042,434.645844 582.595703,435.028442 581.499451,434.074493 
	C580.475281,433.183258 580.126587,429.530243 580.440735,429.399475 
	C583.040649,428.317352 585.863770,427.771545 588.765930,427.025726 
	C588.629822,426.815613 588.160034,425.431885 587.653381,425.418274 
	C584.887573,425.343872 581.434692,424.625702 579.490723,425.969666 
	C576.082703,428.325867 576.218323,432.159698 579.376526,436.108215 
M488.917633,426.566864 
	C486.255585,423.791046 482.814697,422.913361 480.056030,425.410217 
	C478.313599,426.987305 477.058319,430.436554 477.490509,432.678711 
	C477.865906,434.626007 480.687988,437.006531 482.835022,437.530304 
	C488.308350,438.865601 491.288849,433.819916 488.917633,426.566864 
M274.994781,430.513031 
	C274.994781,432.850616 274.994781,435.188232 274.994781,437.525818 
	C275.627106,437.608246 276.259430,437.690704 276.891785,437.773132 
	C277.442902,436.020416 277.994019,434.267670 278.459839,432.786316 
	C280.203064,434.579315 281.875031,436.299072 283.547028,438.018799 
	C283.920563,437.652191 284.294128,437.285583 284.667664,436.918976 
	C283.745544,435.400299 282.823425,433.881622 281.901306,432.362915 
	C283.086182,430.272034 284.032074,427.064301 283.141174,426.427887 
	C281.065491,424.945129 278.105652,424.700043 274.994904,423.807434 
	C274.994904,426.640198 274.994904,428.122711 274.994781,430.513031 
M347.417816,425.972351 
	C346.079742,425.357483 344.779144,424.334320 343.396240,424.207336 
	C339.826141,423.879456 337.186646,425.578766 336.289093,429.093170 
	C335.426849,432.469299 336.384918,435.501007 339.742920,437.050934 
	C342.956360,438.534241 346.540283,438.141449 347.958740,434.878235 
	C348.976440,432.537018 348.010406,429.333496 347.417816,425.972351 
M573.533447,436.313721 
	C572.360535,433.059906 571.212463,429.796875 570.006531,426.555328 
	C569.101685,424.123077 566.930420,423.185822 565.681213,425.409149 
	C563.636780,429.047882 562.583923,433.243774 561.112793,437.204681 
	C561.470276,437.512085 561.827759,437.819489 562.185242,438.126862 
	C565.547546,434.330414 568.885010,433.505096 572.251648,437.540558 
	C572.332581,437.637512 573.062195,437.193359 573.533447,436.313721 
M246.712494,424.683899 
	C245.254623,431.179291 245.738068,435.710846 248.421158,437.678345 
	C248.794861,435.827301 249.133499,434.149963 249.518112,432.244843 
	C251.008453,432.345306 252.404785,432.439423 253.305359,432.500122 
	C254.207123,434.613861 254.884232,436.201019 255.561356,437.788177 
	C255.898819,437.621826 256.236298,437.455444 256.573761,437.289093 
	C256.573761,433.026245 256.573761,428.763397 256.573761,424.500580 
	C256.129761,424.407562 255.685791,424.314545 255.241806,424.221527 
	C254.636322,425.993744 254.030823,427.765991 253.343140,429.778809 
	C252.016479,429.661835 250.632675,429.539795 249.951050,429.479706 
	C248.936462,427.389465 248.225403,425.924561 246.712494,424.683899 
M391.505280,429.730621 
	C390.136627,428.018219 388.767944,426.305817 386.782318,423.821533 
	C386.782318,428.769592 386.782318,433.096161 386.782318,437.422760 
	C387.184570,437.534790 387.586823,437.646820 387.989075,437.758850 
	C388.526581,435.990875 389.064087,434.222900 389.673523,432.218445 
	C391.030029,432.331360 392.425659,432.447510 393.303284,432.520569 
	C394.200928,434.635864 394.868164,436.208252 395.535431,437.780640 
	C395.869446,437.609222 396.203461,437.437805 396.537476,437.266388 
	C396.537476,433.010956 396.537476,428.755524 396.537476,424.500092 
	C396.226196,424.425415 395.914917,424.350769 395.603638,424.276123 
	C394.551544,426.089417 393.499451,427.902679 391.505280,429.730621 
M468.895386,424.317566 
	C467.289185,424.545319 464.861603,424.207886 464.239075,425.112549 
	C462.700684,427.348206 461.166962,430.146667 461.147308,432.730469 
	C461.120941,436.195465 464.256012,437.967682 467.453339,437.690857 
	C469.534668,437.510681 471.481628,435.778046 473.488770,434.740906 
	C473.273102,434.230896 473.057434,433.720856 472.841766,433.210815 
	C469.713013,432.935120 464.245758,438.598755 463.962860,431.267242 
	C463.646393,423.065582 469.856140,429.153412 474.385468,428.341431 
	C472.178314,426.595581 470.887268,425.574371 468.895386,424.317566 
M419.292542,432.373169 
	C419.608307,433.079865 419.924072,433.786591 420.239838,434.493256 
	C419.340393,434.641113 418.409088,435.008545 417.549133,434.883881 
	C416.345917,434.709473 415.195831,434.168274 414.022980,433.784027 
	C415.857513,438.336334 419.206390,438.996094 421.936035,436.471405 
	C423.136261,435.361298 422.138092,431.874237 422.138092,428.439636 
	C424.357025,426.812134 423.093506,424.888580 419.714752,424.562195 
	C417.898651,424.386749 414.780151,425.636414 414.208191,427.040833 
	C412.834839,430.413055 415.683990,431.538452 419.292542,432.373169 
M362.597473,424.480621 
	C362.093201,426.022430 361.611237,427.571960 361.078979,429.104065 
	C360.400818,431.056274 359.681915,432.994354 358.980530,434.938507 
	C358.170441,432.921295 357.250244,430.939453 356.587555,428.874939 
	C356.117554,427.410767 355.995331,425.834961 355.717865,424.308990 
	C355.088165,424.360138 354.458496,424.411285 353.828796,424.462433 
	C353.828796,427.458954 353.295746,430.593842 354.024292,433.401337 
	C354.477356,435.147430 356.896637,437.632568 358.331879,437.566925 
	C360.242157,437.479523 363.192505,435.541077 363.651672,433.844574 
	C364.419617,431.007050 363.569855,427.731659 362.597473,424.480621 
M520.049744,435.063782 
	C519.348206,434.777161 518.646667,434.490540 517.945129,434.203949 
	C518.334412,433.587494 518.585815,432.736633 519.144409,432.408203 
	C520.032532,431.886078 521.125549,431.712433 523.129517,431.073151 
	C520.485901,429.853973 519.076538,429.204010 516.574524,428.050110 
	C519.430115,427.239014 520.970032,426.801636 522.509949,426.364227 
	C522.500305,425.830658 522.490662,425.297119 522.481018,424.763550 
	C520.052551,424.614502 517.624084,424.465424 515.103882,424.310760 
	C515.103882,429.151794 515.103882,433.233795 515.103882,437.652618 
	C517.166565,437.652618 518.974731,437.689514 520.768005,437.543274 
	C520.857422,437.535950 520.817139,435.938660 520.049744,435.063782 
M267.634308,429.691223 
	C266.873962,429.198151 266.113586,428.705109 264.613342,427.732269 
	C267.212738,427.173126 268.696167,426.854034 270.179626,426.534943 
	C270.196442,425.953827 270.213257,425.372742 270.230103,424.791626 
	C267.847595,424.616364 265.465088,424.441101 262.783630,424.243835 
	C262.783630,428.978363 262.783630,433.059540 262.783630,437.767883 
	C265.414825,437.567230 267.751617,437.389008 270.088409,437.210815 
	C270.074829,436.672729 270.061218,436.134644 270.047607,435.596527 
	C268.515991,435.157928 266.984406,434.719299 265.452789,434.280701 
	C266.554993,432.806885 267.763977,432.606506 268.747711,432.025116 
	C269.004150,431.873505 268.558807,430.534576 267.634308,429.691223 
M608.540283,425.032684 
	C602.557251,432.032104 613.389832,430.595978 613.688965,435.315979 
	C611.160461,434.669922 609.154724,434.157440 607.149048,433.644958 
	C606.930298,434.290527 606.711548,434.936127 606.492798,435.581696 
	C608.539673,436.297058 610.570679,437.481598 612.639343,437.551453 
	C613.876526,437.593262 615.944397,436.125580 616.309570,434.930237 
	C617.945984,429.573639 611.585938,430.705048 609.008362,426.640289 
	C612.123596,427.273132 614.006836,427.655701 616.476135,428.157318 
	C614.959839,423.926178 612.366699,423.728210 608.540283,425.032684 
M449.015137,428.704346 
	C449.015137,431.593872 449.015137,434.483398 449.015137,437.881561 
	C452.173004,437.565247 454.492889,437.332886 456.812744,437.100494 
	C456.802917,436.641449 456.793091,436.182404 456.783264,435.723328 
	C455.203796,435.321808 453.624359,434.920288 450.760925,434.192322 
	C453.324524,432.780792 454.829590,431.952087 456.813202,430.859894 
	C454.702637,429.869598 453.243927,429.185181 450.542572,427.917725 
	C453.716125,427.163544 455.305695,426.785797 457.259186,426.321594 
	C452.916138,422.953003 449.761444,423.707764 449.015137,428.704346 
M294.560028,427.078705 
	C295.339996,426.694214 296.119934,426.309723 296.899902,425.925232 
	C296.385803,425.410492 295.909210,424.505615 295.350739,424.451904 
	C293.432800,424.267456 291.486206,424.381073 289.428162,424.381073 
	C289.428162,429.054901 289.428162,433.112946 289.428162,437.773041 
	C292.175720,437.564972 294.561371,437.384338 296.947052,437.203705 
	C296.971039,436.751282 296.995056,436.298889 297.019043,435.846466 
	C295.363037,435.355499 293.707001,434.864502 290.642792,433.956024 
	C293.417450,432.698090 294.913971,432.019623 296.410492,431.341156 
	C296.406891,431.001556 296.403290,430.661957 296.399658,430.322357 
	C295.256744,430.072021 294.113800,429.821655 292.970886,429.571320 
	C293.227905,428.743835 293.484924,427.916351 294.560028,427.078705 
M601.086304,427.052704 
	C601.088074,426.167511 601.089844,425.282349 601.091553,424.397156 
	C599.164124,424.397156 597.236633,424.397156 595.328857,424.397156 
	C595.328857,429.102142 595.328857,433.270142 595.328857,437.893311 
	C598.063660,437.595093 600.334778,437.347412 602.605896,437.099731 
	C602.553711,436.634125 602.501526,436.168488 602.449341,435.702850 
	C600.914551,435.248016 599.379822,434.793182 596.639771,433.981171 
	C599.271240,432.664886 600.736389,431.931976 603.149963,430.724640 
	C601.269470,430.174500 600.411255,429.988251 599.602417,429.674500 
	C597.273926,428.771210 597.376160,428.384155 601.086304,427.052704 
M313.258057,433.122986 
	C313.916260,430.548553 314.574463,427.974121 315.486298,424.407684 
	C313.249908,424.516296 310.334625,424.657867 307.419342,424.799438 
	C307.271027,425.299011 307.122681,425.798584 306.974365,426.298157 
	C314.186401,427.770752 307.604156,435.005676 312.728455,438.128601 
	C312.949066,436.392151 313.103394,435.177551 313.258057,433.122986 
M327.293457,432.201019 
	C328.148743,433.897003 329.004059,435.592957 329.891296,437.352295 
	C332.149994,433.680237 331.958588,427.134033 329.312927,424.561066 
	C329.005859,426.334442 328.736969,427.887268 328.452271,429.531525 
	C326.709625,429.531525 325.147003,429.531525 323.649963,429.531525 
	C323.213745,427.687622 322.846863,426.136810 322.479980,424.585968 
	C322.136200,424.671204 321.792450,424.756439 321.448669,424.841675 
	C321.448669,429.001007 321.448669,433.160370 321.448669,436.672058 
	C323.233795,435.058044 324.829956,433.614868 327.293457,432.201019 
M406.944366,436.762878 
	C407.763367,432.914001 405.004242,428.115540 409.954926,424.992950 
	C407.018097,424.992950 404.081238,424.992950 402.245544,424.992950 
	C402.964783,427.907715 403.468628,430.340332 404.182343,432.709717 
	C404.687561,434.387054 402.471039,437.448883 406.944366,436.762878 
M537.088379,433.236511 
	C537.088379,430.302032 537.088379,427.367523 537.088379,424.433044 
	C536.282227,424.399994 535.476074,424.366943 534.669861,424.333893 
	C534.505920,427.632782 534.219727,430.932648 534.246948,434.229950 
	C534.256042,435.321625 535.072632,436.406647 535.520020,437.494720 
	C536.042786,436.370178 536.565552,435.245667 537.088379,433.236511 
z"/>
<path fill="#491E6C" opacity="1.000000" stroke="none" 
	d="
M468.163940,151.828064 
	C493.594055,171.182037 490.929871,203.334259 475.157959,221.507874 
	C467.293640,230.569809 456.922546,235.518982 445.165588,236.902618 
	C433.032837,238.330475 422.204742,242.034317 413.308960,250.763550 
	C411.784760,252.259232 408.789429,253.894241 407.180054,253.355362 
	C402.472290,251.779037 400.456818,254.860596 397.938446,257.367432 
	C386.957916,268.297791 376.077484,279.330566 364.970428,290.130463 
	C362.662720,292.374329 359.739349,294.248413 356.765167,295.494171 
	C347.717560,299.283783 338.555969,302.821777 329.317719,306.118622 
	C327.426117,306.793671 324.224182,306.791077 323.060272,305.644775 
	C321.959778,304.560974 322.119385,301.335114 322.805756,299.443726 
	C326.435303,289.442352 330.353302,279.543610 334.311523,269.665466 
	C334.960907,268.044891 336.120361,266.518555 337.361603,265.262390 
	C349.070679,253.412567 360.932495,241.711929 372.515411,229.741058 
	C374.231293,227.967712 374.716583,225.007584 375.785278,222.602753 
	C376.569031,220.839127 376.990295,218.729218 378.233826,217.384720 
	C387.300568,207.581787 391.359619,195.925735 393.314850,182.811920 
	C398.392395,148.755951 435.515869,132.113403 463.254822,148.649200 
	C464.825928,149.585785 466.330261,150.634399 468.163940,151.828064 
M412.589355,222.088654 
	C407.849670,226.911407 403.110016,231.734177 398.030212,236.903061 
	C401.010742,239.638657 403.529205,241.950180 406.517426,244.692841 
	C417.576019,232.347519 432.610016,229.479736 448.110382,226.995514 
	C458.268524,225.367493 466.578796,219.561859 472.240112,210.673126 
	C483.523041,192.957947 480.034027,172.542053 463.140839,158.446518 
	C451.184662,148.470398 437.561066,147.420242 423.802032,153.492096 
	C410.617889,159.310257 402.999969,169.797974 400.784363,184.454239 
	C399.607422,192.239700 397.305145,200.013779 394.341797,207.318771 
	C392.087524,212.875824 387.990265,217.685242 384.456177,223.230209 
	C386.910767,225.568024 389.515045,228.048386 391.114899,229.572128 
	C400.567993,220.467697 409.844696,211.533173 419.871368,201.876358 
	C418.096405,200.451660 415.738251,199.315689 414.632904,197.441010 
	C413.686279,195.835480 414.174713,193.383820 414.028473,191.306396 
	C416.071289,191.443451 418.839874,190.775970 420.034363,191.853439 
	C425.962708,197.201111 431.636414,202.863251 437.002960,208.774826 
	C438.105072,209.988831 437.512207,212.741547 437.700623,214.785019 
	C435.631897,214.676071 433.005066,215.313065 431.626495,214.281647 
	C429.607239,212.770828 428.482025,210.065002 426.852356,207.688370 
	C421.278412,213.304794 417.175690,217.438782 412.589355,222.088654 
M393.667114,244.126816 
	C389.998962,240.090271 386.330811,236.053726 383.105347,232.504333 
	C369.900604,245.593933 357.653351,257.734406 346.012115,269.274109 
	C350.283020,273.777802 354.680115,278.414551 359.817566,283.832001 
	C371.389954,271.983582 382.930603,260.226013 394.327271,248.330414 
	C394.909058,247.723160 394.253082,245.930099 393.667114,244.126816 
M336.988281,284.508087 
	C335.668884,287.921753 334.349518,291.335449 332.620605,295.808655 
	C339.406250,293.168762 344.974213,291.002563 350.977600,288.667023 
	C347.038208,284.736786 343.634918,281.341370 339.928467,277.643555 
	C338.927063,279.928345 338.081573,281.857391 336.988281,284.508087 
z"/>
<path fill="#4A1B66" opacity="1.000000" stroke="none" 
	d="
M176.011581,380.069397 
	C175.339783,368.366486 174.697189,357.096558 174.080154,345.825256 
	C174.035004,345.000580 173.907578,344.012878 174.278778,343.364532 
	C175.377701,341.445068 176.820038,338.034973 177.926422,338.111816 
	C181.817810,338.381989 180.469147,341.665405 180.323624,344.234406 
	C180.136169,347.543579 180.277985,350.871399 180.277985,354.430237 
	C182.573288,351.259369 184.535553,347.890350 187.119476,345.096283 
	C196.794830,334.633820 208.338089,336.719879 213.847778,349.756287 
	C218.676056,361.180420 212.979218,381.792206 203.352753,389.536407 
	C196.956390,394.682068 189.230606,393.793091 182.020157,395.209808 
	C181.156631,395.379425 179.251328,393.404694 178.836426,392.102783 
	C177.631927,388.323395 176.940063,384.380676 176.011581,380.069397 
M209.137909,355.977478 
	C208.284454,350.981873 206.437668,346.204010 201.148193,345.002808 
	C195.498947,343.719879 192.007034,347.817780 189.043777,352.043579 
	C188.757965,352.451172 188.461075,352.856476 188.225876,353.293304 
	C182.896683,363.190887 181.808929,373.768372 183.188858,384.743317 
	C183.674881,388.608948 186.424759,389.007202 189.404556,388.569641 
	C195.810364,387.628937 200.944275,384.669647 204.259857,378.853424 
	C208.161453,372.009247 209.962021,364.735840 209.137909,355.977478 
z"/>
<path fill="#491A66" opacity="1.000000" stroke="none" 
	d="
M375.126404,339.052307 
	C378.471161,337.577484 379.946136,339.024231 380.117462,341.889526 
	C381.141724,359.020813 382.149872,376.154449 382.880737,393.299347 
	C382.937103,394.621552 380.820190,396.036377 379.713409,397.408173 
	C378.806732,395.829193 377.220520,394.299530 377.101807,392.663391 
	C376.221893,380.534485 375.638885,368.384064 374.948151,356.241272 
	C374.848846,354.495972 374.671997,352.755066 373.429657,350.823425 
	C371.013580,355.127716 368.720062,359.508331 366.112762,363.693481 
	C365.240021,365.094452 363.413879,367.038300 362.296326,366.874359 
	C360.752411,366.647858 359.012817,364.911346 358.165253,363.375549 
	C356.418457,360.210510 355.207001,356.750000 352.820496,353.361908 
	C352.556183,354.819855 352.093079,356.273163 352.059174,357.736420 
	C351.800751,368.883057 351.743530,380.036224 351.312439,391.175262 
	C351.238922,393.074982 349.677155,394.917053 348.802948,396.785767 
	C347.609467,395.063721 345.495911,393.407990 345.366272,391.609253 
	C344.200195,375.429779 344.760345,359.300201 348.361450,343.416290 
	C348.729553,341.792664 350.585419,340.506348 351.750916,339.063507 
	C353.138641,340.293152 355.053253,341.262085 355.815063,342.801453 
	C358.082550,347.383575 359.897034,352.189850 361.980408,357.126221 
	C366.423096,350.943115 370.624237,345.096222 375.126404,339.052307 
z"/>
<path fill="#4A1B66" opacity="1.000000" stroke="none" 
	d="
M659.350830,346.493286 
	C659.512878,345.579407 659.452454,344.942535 659.742065,344.627319 
	C660.923584,343.341400 662.212219,342.153870 663.461304,340.930054 
	C664.220398,342.530640 665.744934,344.197784 665.612610,345.720917 
	C664.835571,354.662292 663.726807,363.576874 662.619263,372.486725 
	C661.860657,378.590271 661.094604,384.704132 659.949707,390.740875 
	C659.643311,392.356079 657.934692,393.705292 656.869751,395.176636 
	C655.427917,394.044159 653.251831,393.204803 652.663635,391.731476 
	C648.912048,382.334564 645.510986,372.797760 641.992493,363.307770 
	C641.175171,361.103424 640.349731,358.902100 639.528076,356.699371 
	C638.995667,356.781006 638.463257,356.862610 637.930847,356.944244 
	C637.504944,366.800720 637.065613,376.656616 636.668884,386.514282 
	C636.615601,387.839355 637.134460,389.286438 636.756775,390.476562 
	C636.174011,392.312683 635.045654,393.975616 634.148743,395.712036 
	C633.001831,393.999329 630.835144,392.264465 630.871826,390.577484 
	C631.128052,378.785095 631.762634,366.998108 632.453674,355.219788 
	C632.657227,351.749512 633.144470,348.233307 634.063904,344.892853 
	C634.553528,343.113983 636.244812,341.665833 637.393799,340.068420 
	C638.880066,341.400238 641.121094,342.455658 641.726990,344.109894 
	C645.036621,353.146637 647.911499,362.341675 651.009338,371.457367 
	C651.996277,374.361603 653.207947,377.189484 654.316711,380.052277 
	C654.731873,380.012421 655.146973,379.972565 655.562134,379.932678 
	C656.804443,368.927887 658.046814,357.923065 659.350830,346.493286 
z"/>
<path fill="#481965" opacity="1.000000" stroke="none" 
	d="
M333.713531,352.342834 
	C337.260437,364.859619 337.329803,377.019318 333.992432,389.190155 
	C333.773071,389.990173 333.704956,391.008240 333.174500,391.512024 
	C331.806183,392.811218 330.217896,393.878754 328.717499,395.038849 
	C328.295013,393.316284 327.387268,391.551605 327.532471,389.878296 
	C328.232422,381.812042 329.232178,373.772095 330.073181,365.717316 
	C330.153748,364.945770 329.872345,364.136383 329.600403,362.236877 
	C321.713379,362.236877 313.931458,362.077209 306.169708,362.400879 
	C304.938293,362.452240 302.789551,364.673126 302.780334,365.903839 
	C302.724701,373.343109 303.140381,380.787384 303.469727,388.226807 
	C303.527924,389.541718 304.342072,390.948730 304.044250,392.119110 
	C303.734802,393.335175 302.689514,394.752167 301.595123,395.227783 
	C300.984680,395.493042 299.068665,394.235901 298.701904,393.291595 
	C297.749451,390.839294 297.117188,388.211670 296.732391,385.598785 
	C295.108063,374.568787 295.724060,363.696777 299.450836,353.100403 
	C299.506012,352.943512 299.576630,352.791901 299.644226,352.639648 
	C303.214569,344.596252 306.924255,335.989685 317.302307,335.994263 
	C327.139679,335.998596 330.446686,344.270172 333.713531,352.342834 
M307.848328,349.409393 
	C306.895874,351.450012 305.943390,353.490662 304.634491,356.294952 
	C312.927002,356.294952 320.405396,356.294952 329.389099,356.294952 
	C326.847351,351.823364 325.260223,348.013519 322.781219,344.917938 
	C319.396088,340.690887 314.977661,340.861237 311.184723,344.787415 
	C310.038727,345.973724 309.166382,347.424377 307.848328,349.409393 
z"/>
<path fill="#491B66" opacity="1.000000" stroke="none" 
	d="
M392.958862,386.130615 
	C392.570892,372.266235 392.119781,358.833771 392.005554,345.398468 
	C391.993866,344.023285 394.000427,342.630981 395.070435,341.246643 
	C396.029114,342.769012 397.464294,344.186432 397.828491,345.839752 
	C398.308197,348.017242 397.946381,350.380127 397.946381,353.608398 
	C399.216980,352.018097 399.910583,351.028625 400.726135,350.152679 
	C402.864960,347.855530 404.755585,345.173248 407.283173,343.420319 
	C415.573151,337.671021 425.017303,341.723541 426.995514,351.626190 
	C429.981171,366.571869 419.464844,380.073303 404.117859,380.989471 
	C402.492889,381.086456 400.865356,381.140198 398.829529,381.232544 
	C399.272675,384.726227 399.985077,387.829407 399.927490,390.918243 
	C399.897400,392.530701 398.512390,394.117889 397.739380,395.716492 
	C396.475616,394.464783 394.826904,393.410736 394.054565,391.906677 
	C393.256653,390.352844 393.310425,388.361603 392.958862,386.130615 
M416.194183,346.982025 
	C414.067993,347.659760 411.501617,347.796173 409.889984,349.106689 
	C401.913025,355.593414 400.555603,364.865540 399.247986,374.256073 
	C409.549072,375.756317 417.249786,371.563721 420.352661,363.259430 
	C422.805664,356.694336 421.575165,350.789215 416.194183,346.982025 
z"/>
<path fill="#481965" opacity="1.000000" stroke="none" 
	d="
M244.663467,387.816254 
	C240.784363,388.279602 237.278641,388.576202 233.227997,388.918915 
	C233.227997,388.858093 233.455841,389.695923 233.182373,390.310730 
	C232.538422,391.758453 231.655319,393.099792 230.868988,394.484192 
	C229.623444,393.394958 227.534439,392.475555 227.275101,391.187683 
	C225.997940,384.845123 224.650497,378.428284 224.379257,371.993317 
	C224.016190,363.379761 224.433289,354.713837 224.969193,346.098663 
	C225.073196,344.426697 227.258331,342.884216 228.483521,341.282043 
	C229.298004,343.205597 230.406265,345.066895 230.831192,347.072968 
	C231.153397,348.594147 230.604950,350.299774 231.248184,352.394043 
	C232.312897,351.094604 233.286270,349.705322 234.459625,348.512787 
	C237.849701,345.067291 241.665115,342.357117 246.827972,343.860718 
	C252.086777,345.392181 253.788361,349.786926 254.266327,354.611481 
	C255.309677,365.143097 250.071167,372.706421 242.197296,378.864868 
	C240.806671,379.952515 239.272003,380.855957 238.101013,382.913849 
	C239.523727,382.694244 240.968033,382.211823 242.363251,382.326569 
	C243.852051,382.449005 245.294464,383.135590 246.757126,383.575867 
	C246.183701,384.933746 245.610275,386.291626 244.663467,387.816254 
M243.813675,369.228729 
	C245.292114,364.763458 247.245575,360.378326 248.018982,355.794098 
	C248.335495,353.918030 246.100510,351.611450 245.026260,349.500732 
	C242.846329,350.727692 239.951279,351.434631 238.613708,353.274139 
	C233.565201,360.216949 232.305832,368.384064 231.903458,376.686371 
	C232.298264,377.066833 232.693054,377.447296 233.087860,377.827759 
	C236.509125,375.147217 239.930389,372.466705 243.813675,369.228729 
z"/>
<path fill="#491A66" opacity="1.000000" stroke="none" 
	d="
M579.953125,389.866425 
	C569.956238,402.239746 556.561035,401.014954 549.175476,387.382324 
	C541.395020,373.020782 543.996094,352.265289 554.813660,342.392090 
	C561.733093,336.076721 571.305359,336.509308 577.422546,343.626495 
	C578.282959,344.627594 578.119385,346.508850 578.429749,347.982697 
	C576.811890,348.032990 574.793518,348.737244 573.639343,348.030396 
	C564.150513,342.218933 558.230896,343.726440 553.803406,354.016388 
	C549.290100,364.505676 549.387207,375.088318 555.086426,385.239746 
	C557.469543,389.484589 560.739014,392.695038 566.163086,392.368469 
	C570.266907,392.121399 573.445496,389.287628 576.096436,383.387756 
	C575.140137,383.157196 574.011414,383.198212 573.379272,382.658020 
	C572.470032,381.881042 571.146912,380.394440 571.394104,379.726105 
	C571.808533,378.605408 573.298279,377.170746 574.376648,377.135742 
	C578.179199,377.012177 582.032410,377.204346 585.793579,377.765228 
	C587.021118,377.948273 588.026123,379.624237 589.132874,380.617432 
	C588.076050,381.637573 587.018738,383.526276 585.962463,383.525665 
	C581.672668,383.523224 582.235535,387.745941 579.953125,389.866425 
z"/>
<path fill="#491A66" opacity="1.000000" stroke="none" 
	d="
M472.837097,393.631622 
	C470.336792,397.376648 468.349854,396.432556 466.992889,393.214935 
	C465.325500,389.261292 463.943024,385.187469 461.900848,379.732361 
	C460.195343,384.505798 459.171936,388.190399 457.540710,391.582703 
	C456.747742,393.231812 454.818085,394.334290 453.402985,395.684235 
	C452.892090,393.714661 451.340881,391.217590 452.030853,389.856873 
	C459.147491,375.821716 458.386810,361.833893 452.636139,347.681061 
	C452.016815,346.156891 451.366333,344.442780 451.490723,342.877167 
	C451.610840,341.364929 452.714325,339.930817 453.385864,338.462402 
	C454.631287,339.452515 456.575867,340.208160 457.000244,341.473602 
	C458.778015,346.774750 460.100159,352.228638 462.596802,357.755280 
	C464.130798,353.385742 465.553009,348.972290 467.246399,344.665466 
	C468.080200,342.544891 468.461029,338.970062 471.924622,340.523254 
	C472.958282,340.986816 473.400299,344.557007 472.889160,346.355957 
	C471.076630,352.734985 468.483582,358.894012 466.713440,365.282440 
	C465.971619,367.959747 465.932373,371.167633 466.648987,373.846649 
	C468.402466,380.401825 470.782257,386.789429 472.837097,393.631622 
z"/>
<path fill="#4A1B66" opacity="1.000000" stroke="none" 
	d="
M500.893799,397.019775 
	C486.977722,399.085510 486.226837,398.557465 484.007019,385.074524 
	C481.717773,371.169739 481.359833,357.272247 483.815002,343.317902 
	C484.580017,338.969879 486.567017,336.729218 491.042755,336.862213 
	C495.037018,336.980957 499.077087,336.736145 503.004791,337.297180 
	C504.444580,337.502838 505.619720,339.561462 506.915619,340.774811 
	C505.488098,341.611908 504.111633,343.043060 502.623169,343.170990 
	C498.676849,343.510132 494.682129,343.286072 490.026123,343.286072 
	C489.501709,347.263885 488.970825,351.290955 488.571533,354.319702 
	C491.225769,356.266266 493.140076,357.670166 495.054382,359.074097 
	C493.084045,360.712708 491.113647,362.351288 489.143280,363.989868 
	C488.595154,363.827209 488.046997,363.664581 487.498871,363.501923 
	C488.701019,372.172272 489.802216,380.859650 491.256683,389.487457 
	C491.407166,390.380127 493.609619,391.357086 494.950562,391.512299 
	C496.713226,391.716339 498.560364,391.012573 500.380951,390.938293 
	C502.755035,390.841400 506.052277,389.866211 506.203583,393.492004 
	C506.249298,394.588135 503.033112,395.820343 500.893799,397.019775 
z"/>
<path fill="#491A66" opacity="1.000000" stroke="none" 
	d="
M603.999023,354.777344 
	C604.534912,355.522339 605.027283,355.864777 605.551208,356.149323 
	C607.141907,357.013428 608.744751,357.855164 610.342896,358.705597 
	C608.937744,359.988678 607.453552,361.197418 606.153320,362.579254 
	C605.183228,363.610229 603.652039,364.930756 603.740967,366.009247 
	C604.368958,373.621552 605.191284,381.230164 606.394226,388.769318 
	C606.574280,389.897308 609.006592,391.293701 610.508850,391.443481 
	C613.103394,391.702209 615.799805,390.812195 618.424500,390.951538 
	C619.578003,391.012756 620.660156,392.418060 621.774719,393.213135 
	C620.964050,394.298065 620.294922,396.156342 619.318298,396.335022 
	C614.923340,397.139252 610.423279,397.911621 605.999756,397.733643 
	C604.374390,397.668243 601.940918,395.207733 601.430847,393.400787 
	C596.647705,376.457977 596.437073,359.253143 599.393921,341.976715 
	C599.924377,338.877441 601.790466,336.918060 605.241516,336.976929 
	C609.399658,337.047821 613.600708,336.737976 617.696594,337.265350 
	C619.297485,337.471527 620.663147,339.504608 622.135986,340.705566 
	C620.583191,341.545135 619.052795,342.431427 617.461792,343.191040 
	C617.070007,343.378082 616.480225,343.111328 615.983032,343.122437 
	C603.908325,343.392120 605.378357,339.812592 603.999023,354.777344 
z"/>
<path fill="#491A66" opacity="1.000000" stroke="none" 
	d="
M263.362000,376.584229 
	C263.571259,365.673676 263.531982,355.200623 264.238831,344.778137 
	C264.697144,338.020081 266.432800,336.882141 273.140076,336.811584 
	C276.629059,336.774902 280.180878,336.679749 283.583740,337.286865 
	C285.065979,337.551361 286.245270,339.514130 287.562134,340.705627 
	C286.146301,341.577179 284.794189,343.033600 283.301117,343.196259 
	C280.357513,343.516937 277.323181,343.256470 274.349823,342.982178 
	C271.361481,342.706512 270.122742,343.913910 269.975464,346.851685 
	C269.834717,349.658813 269.358643,352.449158 269.110779,354.559082 
	C271.624695,356.307739 273.711334,357.759186 275.797974,359.210632 
	C273.747864,360.793457 271.697723,362.376282 269.647614,363.959106 
	C269.161896,363.827057 268.676178,363.695007 268.190460,363.562988 
	C269.311920,371.908569 270.440491,380.253174 271.550934,388.600220 
	C271.921906,391.388672 273.446991,392.077789 276.104187,391.558075 
	C278.535004,391.082672 281.083679,390.715057 283.516846,390.952209 
	C284.762177,391.073578 285.868347,392.622925 287.037415,393.526855 
	C286.134369,394.547485 285.364502,396.262329 284.304626,396.465668 
	C280.243042,397.244934 276.056274,398.043274 271.982758,397.785095 
	C270.149597,397.668915 267.470062,395.386597 266.914551,393.558472 
	C265.285034,388.195557 264.528442,382.567413 263.362000,376.584229 
z"/>
<path fill="#4A1B66" opacity="1.000000" stroke="none" 
	d="
M521.862427,381.850220 
	C522.016968,384.444702 522.154419,386.559631 522.322815,389.150726 
	C525.429199,388.930359 528.091187,388.347626 530.628540,388.689423 
	C532.567139,388.950500 534.348083,390.381775 536.199158,391.292542 
	C534.503052,392.491394 532.949951,394.308411 531.076721,394.741730 
	C528.387512,395.363739 525.457397,394.862030 522.643921,395.048920 
	C518.647461,395.314362 516.694214,393.151825 516.289795,389.581848 
	C514.537537,374.113647 515.352722,358.707001 518.032471,343.411835 
	C518.251953,342.159149 520.297485,341.226349 521.494507,340.144897 
	C522.262268,341.796967 523.758850,343.487061 523.674927,345.094635 
	C523.251160,353.213013 522.296814,361.302277 521.776001,369.417633 
	C521.521423,373.384186 521.805237,377.385223 521.862427,381.850220 
z"/>
<path fill="#491A66" opacity="1.000000" stroke="none" 
	d="
M436.413605,383.791992 
	C436.261871,370.540070 436.133606,357.762604 436.026367,344.984985 
	C436.018036,343.994751 435.825256,342.781189 436.304962,342.063690 
	C437.049988,340.949341 438.299530,340.172272 439.335205,339.252258 
	C440.235352,340.278442 441.775299,341.226868 441.911285,342.345947 
	C442.268738,345.287476 441.956177,348.304443 442.015259,351.289276 
	C442.258179,363.565521 442.544922,375.840942 442.800690,388.116943 
	C442.828247,389.438873 443.078217,390.881958 442.641449,392.050812 
	C442.240845,393.122955 440.900269,394.740845 440.242279,394.622742 
	C439.073853,394.413025 437.445190,393.231384 437.190247,392.172028 
	C436.577118,389.624390 436.647644,386.912231 436.413605,383.791992 
z"/>
<path fill="#481D6B" opacity="1.000000" stroke="none" 
	d="
M439.271973,133.463699 
	C437.958405,131.949707 436.310333,130.603302 436.190948,129.132797 
	C435.828461,124.668198 435.686462,120.108894 436.243896,115.685448 
	C436.457153,113.993263 438.796509,112.568993 440.166992,111.022621 
	C441.541504,112.538727 443.892914,113.932198 444.101593,115.594681 
	C444.657013,120.018600 444.303284,124.558479 444.283630,129.052139 
	C444.270233,132.114777 442.730194,133.654358 439.271973,133.463699 
z"/>
<path fill="#481D6B" opacity="1.000000" stroke="none" 
	d="
M478.499451,231.086548 
	C481.212769,226.504211 482.808258,226.132797 486.156525,229.268982 
	C489.183777,232.104492 492.037689,235.124802 494.976044,238.055573 
	C496.996246,240.070633 498.029846,242.638779 495.436310,244.387436 
	C494.122772,245.273087 490.745422,244.974518 489.582520,243.866486 
	C485.567169,240.040573 482.115387,235.623154 478.499451,231.086548 
z"/>
<path fill="#4C216F" opacity="1.000000" stroke="none" 
	d="
M496.174927,134.758942 
	C496.062714,136.734512 496.278046,138.833801 495.332489,139.947464 
	C492.451782,143.340302 489.352692,146.648178 485.854492,149.366013 
	C484.487640,150.427902 481.832306,149.831268 479.763794,149.990021 
	C479.842194,147.946976 479.133514,145.295776 480.151276,143.978561 
	C482.859436,140.473587 486.262421,137.492188 489.485352,134.403015 
	C491.573914,132.401077 493.820374,132.117294 496.174927,134.758942 
z"/>
<path fill="#491E6C" opacity="1.000000" stroke="none" 
	d="
M400.854889,144.401443 
	C400.779602,146.602234 400.480896,148.504837 400.182159,150.407425 
	C398.228485,150.044693 395.801971,150.285049 394.415924,149.198349 
	C391.159027,146.644897 388.383942,143.472626 385.443909,140.520828 
	C383.438324,138.507217 382.412842,135.796951 385.028290,134.170990 
	C386.451172,133.286453 389.777161,133.908386 391.312439,135.076355 
	C394.729980,137.676239 397.561218,141.046783 400.854889,144.401443 
z"/>
<path fill="#451A69" opacity="1.000000" stroke="none" 
	d="
M515.392212,192.940414 
	C510.160980,193.054657 505.370056,193.051178 500.580048,193.115311 
	C497.622437,193.154907 495.297028,191.920135 496.052155,188.873291 
	C496.441711,187.301453 498.869019,185.389008 500.580658,185.159470 
	C504.638275,184.615341 508.837128,184.755249 512.939758,185.093552 
	C514.641541,185.233856 517.340271,186.314880 517.623352,187.455261 
	C518.009338,189.009933 516.518860,191.030457 515.392212,192.940414 
z"/>
<path fill="#23266D" opacity="1.000000" stroke="none" 
	d="
M240.118576,424.447754 
	C239.779785,428.645752 239.085388,432.873718 238.390991,437.101685 
	C237.072586,436.676971 235.311127,436.630188 234.546082,435.733459 
	C233.553925,434.570374 233.355301,432.730408 232.928238,431.506195 
	C231.367722,433.548737 229.811432,435.585724 228.255127,437.622742 
	C227.048248,435.146606 225.705307,432.725098 224.681931,430.175293 
	C223.989853,428.450958 223.747604,426.546082 223.090668,423.843811 
	C228.194122,425.675903 226.453171,430.024017 228.558197,432.554382 
	C229.684189,429.739929 230.801849,426.946381 231.919510,424.152802 
	C232.383286,424.162201 232.847061,424.171600 233.310837,424.181000 
	C234.351273,427.011475 235.391724,429.841949 236.458878,432.745117 
	C237.591949,429.910004 238.677460,427.193848 240.118576,424.447754 
z"/>
<path fill="#20246B" opacity="1.000000" stroke="none" 
	d="
M542.092529,435.442993 
	C542.453064,431.729614 542.794495,428.430420 543.156067,424.936554 
	C549.242432,422.672638 547.145813,429.408234 550.101746,431.099854 
	C550.728882,429.397736 551.157654,427.629364 552.028564,426.115234 
	C552.490662,425.311768 553.663574,424.713104 554.625671,424.484161 
	C555.134827,424.363007 556.383179,425.174408 556.438354,425.661896 
	C556.883972,429.605133 557.125488,433.571442 557.429199,437.530701 
	C556.755615,437.615753 556.081970,437.700836 555.408386,437.785889 
	C554.844604,435.419769 554.280823,433.053650 553.581848,430.119995 
	C552.431763,432.760925 551.406128,435.115967 549.870911,438.641357 
	C548.396484,435.481323 547.355774,433.250763 545.656616,429.609009 
	C545.335693,432.606720 545.427917,434.358643 544.917236,435.912323 
	C544.123230,438.327759 542.979187,438.301697 542.092529,435.442993 
z"/>
<path fill="#20246B" opacity="1.000000" stroke="none" 
	d="
M506.803833,433.432251 
	C506.617279,432.415497 506.466156,431.800903 506.073700,430.204620 
	C504.684845,433.209839 503.670959,435.403687 502.056396,438.897278 
	C500.618713,435.319550 499.631287,432.862274 498.319397,429.597565 
	C497.727417,432.866638 497.292145,435.270172 496.856903,437.673737 
	C496.118866,437.583221 495.380829,437.492737 494.642792,437.402222 
	C494.965851,433.335968 495.288879,429.269745 495.611877,425.203491 
	C497.073059,425.491333 499.041718,425.302124 499.870972,426.184113 
	C500.984467,427.368530 501.217651,429.380524 501.857574,431.115387 
	C504.720459,429.299225 502.680145,423.189941 508.775757,424.752960 
	C509.139984,428.876221 509.509460,433.059204 509.878967,437.242188 
	C509.315247,437.404236 508.751526,437.566284 508.187805,437.728302 
	C507.738281,436.430328 507.288788,435.132355 506.803833,433.432251 
z"/>
<path fill="#272A70" opacity="1.000000" stroke="none" 
	d="
M379.311127,437.348083 
	C377.648315,437.388428 376.359863,437.816193 375.083069,437.783844 
	C371.495270,437.692963 369.002991,435.908783 368.376740,432.299438 
	C367.776855,428.841919 368.922760,425.980347 372.446869,424.670532 
	C375.721344,423.453522 378.431122,424.126373 380.621643,427.899109 
	C377.161743,428.559998 372.778290,424.385986 371.367157,429.948578 
	C371.057495,431.169281 371.578644,433.370758 372.473145,433.946869 
	C373.821594,434.815308 375.835236,434.650848 377.566132,434.925446 
	C377.671692,434.447510 377.777252,433.969574 377.882843,433.491638 
	C377.260742,433.276611 376.579559,433.156616 376.034576,432.817657 
	C375.565857,432.526123 375.252502,431.984772 374.091858,430.675842 
	C376.881775,430.519348 378.724518,430.415985 381.838715,430.241272 
	C380.996124,433.098755 380.343475,435.312134 379.311127,437.348083 
z"/>
<path fill="#272A70" opacity="1.000000" stroke="none" 
	d="
M435.508026,424.891296 
	C442.213470,424.156158 446.631958,429.118164 444.095734,434.894562 
	C443.228394,436.869965 438.974945,437.358643 435.207092,438.984711 
	C435.207092,433.278015 435.207092,429.234955 435.508026,424.891296 
z"/>
<path fill="#23266D" opacity="1.000000" stroke="none" 
	d="
M579.091797,435.848267 
	C576.218323,432.159698 576.082703,428.325867 579.490723,425.969666 
	C581.434692,424.625702 584.887573,425.343872 587.653381,425.418274 
	C588.160034,425.431885 588.629822,426.815613 588.765930,427.025726 
	C585.863770,427.771545 583.040649,428.317352 580.440735,429.399475 
	C580.126587,429.530243 580.475281,433.183258 581.499451,434.074493 
	C582.595703,435.028442 584.855042,434.645844 586.606750,434.846588 
	C586.671082,434.421234 586.735413,433.995880 586.799744,433.570526 
	C585.826294,433.099548 584.852783,432.628571 583.879272,432.157593 
	C583.888245,431.737305 583.897156,431.317017 583.906067,430.896729 
	C585.744019,430.688995 587.581970,430.481293 589.777710,430.233093 
	C589.777710,432.828796 589.777710,434.904358 589.777710,437.735687 
	C586.257751,437.184906 582.817139,436.646576 579.091797,435.848267 
z"/>
<path fill="#1C2068" opacity="1.000000" stroke="none" 
	d="
M489.098755,426.893433 
	C491.288849,433.819916 488.308350,438.865601 482.835022,437.530304 
	C480.687988,437.006531 477.865906,434.626007 477.490509,432.678711 
	C477.058319,430.436554 478.313599,426.987305 480.056030,425.410217 
	C482.814697,422.913361 486.255585,423.791046 489.098755,426.893433 
M487.279541,432.213684 
	C486.284882,430.465973 485.494293,428.521271 484.141144,427.119598 
	C483.832397,426.799774 480.607971,428.172974 480.435944,429.088409 
	C480.126526,430.735016 481.111359,432.624817 481.555481,434.413055 
	C483.366730,433.947479 485.177979,433.481903 487.279541,432.213684 
z"/>
<path fill="#23266D" opacity="1.000000" stroke="none" 
	d="
M274.994843,430.059113 
	C274.994904,428.122711 274.994904,426.640198 274.994904,423.807434 
	C278.105652,424.700043 281.065491,424.945129 283.141174,426.427887 
	C284.032074,427.064301 283.086182,430.272034 281.901306,432.362915 
	C282.823425,433.881622 283.745544,435.400299 284.667664,436.918976 
	C284.294128,437.285583 283.920563,437.652191 283.547028,438.018799 
	C281.875031,436.299072 280.203064,434.579315 278.459839,432.786316 
	C277.994019,434.267670 277.442902,436.020416 276.891785,437.773132 
	C276.259430,437.690704 275.627106,437.608246 274.994781,437.525818 
	C274.994781,435.188232 274.994781,432.850616 274.994843,430.059113 
z"/>
<path fill="#1C2068" opacity="1.000000" stroke="none" 
	d="
M347.673584,426.243530 
	C348.010406,429.333496 348.976440,432.537018 347.958740,434.878235 
	C346.540283,438.141449 342.956360,438.534241 339.742920,437.050934 
	C336.384918,435.501007 335.426849,432.469299 336.289093,429.093170 
	C337.186646,425.578766 339.826141,423.879456 343.396240,424.207336 
	C344.779144,424.334320 346.079742,425.357483 347.673584,426.243530 
M345.818878,433.497833 
	C345.435638,431.432404 345.295898,429.259460 344.470032,427.389526 
	C344.298523,427.001160 340.704712,427.236938 340.234528,428.064087 
	C339.415955,429.504211 339.024170,432.376648 339.884613,433.269928 
	C340.882416,434.305664 343.423279,433.854919 345.818878,433.497833 
z"/>
<path fill="#272A70" opacity="1.000000" stroke="none" 
	d="
M573.511353,436.657654 
	C573.062195,437.193359 572.332581,437.637512 572.251648,437.540558 
	C568.885010,433.505096 565.547546,434.330414 562.185242,438.126862 
	C561.827759,437.819489 561.470276,437.512085 561.112793,437.204681 
	C562.583923,433.243774 563.636780,429.047882 565.681213,425.409149 
	C566.930420,423.185822 569.101685,424.123077 570.006531,426.555328 
	C571.212463,429.796875 572.360535,433.059906 573.511353,436.657654 
z"/>
<path fill="#20246B" opacity="1.000000" stroke="none" 
	d="
M247.113419,424.571777 
	C248.225403,425.924561 248.936462,427.389465 249.951050,429.479706 
	C250.632675,429.539795 252.016479,429.661835 253.343140,429.778809 
	C254.030823,427.765991 254.636322,425.993744 255.241806,424.221527 
	C255.685791,424.314545 256.129761,424.407562 256.573761,424.500580 
	C256.573761,428.763397 256.573761,433.026245 256.573761,437.289093 
	C256.236298,437.455444 255.898819,437.621826 255.561356,437.788177 
	C254.884232,436.201019 254.207123,434.613861 253.305359,432.500122 
	C252.404785,432.439423 251.008453,432.345306 249.518112,432.244843 
	C249.133499,434.149963 248.794861,435.827301 248.421158,437.678345 
	C245.738068,435.710846 245.254623,431.179291 247.113419,424.571777 
z"/>
<path fill="#20246B" opacity="1.000000" stroke="none" 
	d="
M391.976318,429.723297 
	C393.499451,427.902679 394.551544,426.089417 395.603638,424.276123 
	C395.914917,424.350769 396.226196,424.425415 396.537476,424.500092 
	C396.537476,428.755524 396.537476,433.010956 396.537476,437.266388 
	C396.203461,437.437805 395.869446,437.609222 395.535431,437.780640 
	C394.868164,436.208252 394.200928,434.635864 393.303284,432.520569 
	C392.425659,432.447510 391.030029,432.331360 389.673523,432.218445 
	C389.064087,434.222900 388.526581,435.990875 387.989075,437.758850 
	C387.586823,437.646820 387.184570,437.534790 386.782318,437.422760 
	C386.782318,433.096161 386.782318,428.769592 386.782318,423.821533 
	C388.767944,426.305817 390.136627,428.018219 391.976318,429.723297 
z"/>
<path fill="#20246B" opacity="1.000000" stroke="none" 
	d="
M469.245789,424.435364 
	C470.887268,425.574371 472.178314,426.595581 474.385468,428.341431 
	C469.856140,429.153412 463.646393,423.065582 463.962860,431.267242 
	C464.245758,438.598755 469.713013,432.935120 472.841766,433.210815 
	C473.057434,433.720856 473.273102,434.230896 473.488770,434.740906 
	C471.481628,435.778046 469.534668,437.510681 467.453339,437.690857 
	C464.256012,437.967682 461.120941,436.195465 461.147308,432.730469 
	C461.166962,430.146667 462.700684,427.348206 464.239075,425.112549 
	C464.861603,424.207886 467.289185,424.545319 469.245789,424.435364 
z"/>
<path fill="#23266D" opacity="1.000000" stroke="none" 
	d="
M418.907776,432.221069 
	C415.683990,431.538452 412.834839,430.413055 414.208191,427.040833 
	C414.780151,425.636414 417.898651,424.386749 419.714752,424.562195 
	C423.093506,424.888580 424.357025,426.812134 422.138092,428.439636 
	C422.138092,431.874237 423.136261,435.361298 421.936035,436.471405 
	C419.206390,438.996094 415.857513,438.336334 414.022980,433.784027 
	C415.195831,434.168274 416.345917,434.709473 417.549133,434.883881 
	C418.409088,435.008545 419.340393,434.641113 420.239838,434.493286 
	C419.924072,433.786591 419.608307,433.079865 418.907776,432.221069 
M416.990051,427.569397 
	C417.976166,428.325623 418.962250,429.081848 419.948364,429.838104 
	C420.228241,429.352081 420.508087,428.866058 420.787964,428.380035 
	C419.765411,427.885406 418.742889,427.390808 416.990051,427.569397 
z"/>
<path fill="#1C2068" opacity="1.000000" stroke="none" 
	d="
M362.999268,424.560608 
	C363.569855,427.731659 364.419617,431.007050 363.651672,433.844574 
	C363.192505,435.541077 360.242157,437.479523 358.331879,437.566925 
	C356.896637,437.632568 354.477356,435.147430 354.024292,433.401337 
	C353.295746,430.593842 353.828796,427.458954 353.828796,424.462433 
	C354.458496,424.411285 355.088165,424.360138 355.717865,424.308990 
	C355.995331,425.834961 356.117554,427.410767 356.587555,428.874939 
	C357.250244,430.939453 358.170441,432.921295 358.980530,434.938507 
	C359.681915,432.994354 360.400818,431.056274 361.078979,429.104065 
	C361.611237,427.571960 362.093201,426.022430 362.999268,424.560608 
z"/>
<path fill="#272A70" opacity="1.000000" stroke="none" 
	d="
M520.443481,435.072723 
	C520.817139,435.938660 520.857422,437.535950 520.768005,437.543274 
	C518.974731,437.689514 517.166565,437.652618 515.103882,437.652618 
	C515.103882,433.233795 515.103882,429.151794 515.103882,424.310760 
	C517.624084,424.465424 520.052551,424.614502 522.481018,424.763550 
	C522.490662,425.297119 522.500305,425.830658 522.509949,426.364227 
	C520.970032,426.801636 519.430115,427.239014 516.574524,428.050110 
	C519.076538,429.204010 520.485901,429.853973 523.129517,431.073151 
	C521.125549,431.712433 520.032532,431.886078 519.144409,432.408203 
	C518.585815,432.736633 518.334412,433.587494 517.945129,434.203949 
	C518.646667,434.490540 519.348206,434.777161 520.443481,435.072723 
z"/>
<path fill="#272A70" opacity="1.000000" stroke="none" 
	d="
M268.035034,429.716095 
	C268.558807,430.534576 269.004150,431.873505 268.747711,432.025116 
	C267.763977,432.606506 266.554993,432.806885 265.452789,434.280701 
	C266.984406,434.719299 268.515991,435.157928 270.047607,435.596527 
	C270.061218,436.134644 270.074829,436.672729 270.088409,437.210815 
	C267.751617,437.389008 265.414825,437.567230 262.783630,437.767883 
	C262.783630,433.059540 262.783630,428.978363 262.783630,424.243835 
	C265.465088,424.441101 267.847595,424.616364 270.230103,424.791626 
	C270.213257,425.372742 270.196442,425.953827 270.179626,426.534943 
	C268.696167,426.854034 267.212738,427.173126 264.613342,427.732269 
	C266.113586,428.705109 266.873962,429.198151 268.035034,429.716095 
z"/>
<path fill="#272A70" opacity="1.000000" stroke="none" 
	d="
M608.895020,424.868347 
	C612.366699,423.728210 614.959839,423.926178 616.476135,428.157318 
	C614.006836,427.655701 612.123596,427.273132 609.008362,426.640289 
	C611.585938,430.705048 617.945984,429.573639 616.309570,434.930237 
	C615.944397,436.125580 613.876526,437.593262 612.639343,437.551453 
	C610.570679,437.481598 608.539673,436.297058 606.492798,435.581696 
	C606.711548,434.936127 606.930298,434.290527 607.149048,433.644958 
	C609.154724,434.157440 611.160461,434.669922 613.688965,435.315979 
	C613.389832,430.595978 602.557251,432.032104 608.895020,424.868347 
z"/>
<path fill="#272A70" opacity="1.000000" stroke="none" 
	d="
M449.015381,428.251007 
	C449.761444,423.707764 452.916138,422.953003 457.259186,426.321594 
	C455.305695,426.785797 453.716125,427.163544 450.542572,427.917725 
	C453.243927,429.185181 454.702637,429.869598 456.813202,430.859894 
	C454.829590,431.952087 453.324524,432.780792 450.760925,434.192322 
	C453.624359,434.920288 455.203796,435.321808 456.783264,435.723328 
	C456.793091,436.182404 456.802917,436.641449 456.812744,437.100494 
	C454.492889,437.332886 452.173004,437.565247 449.015137,437.881561 
	C449.015137,434.483398 449.015137,431.593872 449.015381,428.251007 
z"/>
<path fill="#292C72" opacity="1.000000" stroke="none" 
	d="
M294.151001,427.083771 
	C293.484924,427.916351 293.227905,428.743835 292.970886,429.571320 
	C294.113800,429.821655 295.256744,430.072021 296.399658,430.322357 
	C296.403290,430.661957 296.406891,431.001556 296.410492,431.341156 
	C294.913971,432.019623 293.417450,432.698090 290.642792,433.956024 
	C293.707001,434.864502 295.363037,435.355499 297.019043,435.846466 
	C296.995056,436.298889 296.971039,436.751282 296.947052,437.203705 
	C294.561371,437.384338 292.175720,437.564972 289.428162,437.773041 
	C289.428162,433.112946 289.428162,429.054901 289.428162,424.381073 
	C291.486206,424.381073 293.432800,424.267456 295.350739,424.451904 
	C295.909210,424.505615 296.385803,425.410492 296.899902,425.925232 
	C296.119934,426.309723 295.339996,426.694214 294.151001,427.083771 
z"/>
<path fill="#272A70" opacity="1.000000" stroke="none" 
	d="
M600.678589,427.061646 
	C597.376160,428.384155 597.273926,428.771210 599.602417,429.674500 
	C600.411255,429.988251 601.269470,430.174500 603.149963,430.724640 
	C600.736389,431.931976 599.271240,432.664886 596.639771,433.981171 
	C599.379822,434.793182 600.914551,435.248016 602.449341,435.702850 
	C602.501526,436.168488 602.553711,436.634125 602.605896,437.099731 
	C600.334778,437.347412 598.063660,437.595093 595.328857,437.893311 
	C595.328857,433.270142 595.328857,429.102142 595.328857,424.397156 
	C597.236633,424.397156 599.164124,424.397156 601.091553,424.397156 
	C601.089844,425.282349 601.088074,426.167511 600.678589,427.061646 
z"/>
<path fill="#23266D" opacity="1.000000" stroke="none" 
	d="
M313.257874,433.542969 
	C313.103394,435.177551 312.949066,436.392151 312.728455,438.128601 
	C307.604156,435.005676 314.186401,427.770752 306.974365,426.298157 
	C307.122681,425.798584 307.271027,425.299011 307.419342,424.799438 
	C310.334625,424.657867 313.249908,424.516296 315.486298,424.407684 
	C314.574463,427.974121 313.916260,430.548553 313.257874,433.542969 
z"/>
<path fill="#070D59" opacity="1.000000" stroke="none" 
	d="
M326.859802,432.186340 
	C324.829956,433.614868 323.233795,435.058044 321.448669,436.672058 
	C321.448669,433.160370 321.448669,429.001007 321.448669,424.841675 
	C321.792450,424.756439 322.136200,424.671204 322.479980,424.585968 
	C322.846863,426.136810 323.213745,427.687622 323.649963,429.531525 
	C325.147003,429.531525 326.709625,429.531525 328.452271,429.531525 
	C328.736969,427.887268 329.005859,426.334442 329.312927,424.561066 
	C331.958588,427.134033 332.149994,433.680237 329.891296,437.352295 
	C329.004059,435.592957 328.148743,433.897003 326.859802,432.186340 
z"/>
<path fill="#292C72" opacity="1.000000" stroke="none" 
	d="
M406.704895,437.106049 
	C402.471039,437.448883 404.687561,434.387054 404.182343,432.709717 
	C403.468628,430.340332 402.964783,427.907715 402.245544,424.992950 
	C404.081238,424.992950 407.018097,424.992950 409.954926,424.992950 
	C405.004242,428.115540 407.763367,432.914001 406.704895,437.106049 
z"/>
<path fill="#23266D" opacity="1.000000" stroke="none" 
	d="
M537.088379,433.678833 
	C536.565552,435.245667 536.042786,436.370178 535.520020,437.494690 
	C535.072632,436.406647 534.256042,435.321625 534.246948,434.229950 
	C534.219727,430.932648 534.505920,427.632782 534.669861,424.333893 
	C535.476074,424.366943 536.282227,424.399994 537.088379,424.433044 
	C537.088379,427.367523 537.088379,430.302032 537.088379,433.678833 
z"/>
<path fill="#E4D4F7" opacity="1.000000" stroke="none" 
	d="
M412.831177,221.830719 
	C417.175690,217.438782 421.278412,213.304794 426.852356,207.688370 
	C428.482025,210.065002 429.607239,212.770828 431.626495,214.281647 
	C433.005066,215.313065 435.631897,214.676071 437.700623,214.785019 
	C437.512207,212.741547 438.105072,209.988831 437.002960,208.774826 
	C431.636414,202.863251 425.962708,197.201111 420.034363,191.853439 
	C418.839874,190.775970 416.071289,191.443451 414.028473,191.306396 
	C414.174713,193.383820 413.686279,195.835480 414.632904,197.441010 
	C415.738251,199.315689 418.096405,200.451660 419.871368,201.876358 
	C409.844696,211.533173 400.567993,220.467697 391.114899,229.572128 
	C389.515045,228.048386 386.910767,225.568024 384.456177,223.230209 
	C387.990265,217.685242 392.087524,212.875824 394.341797,207.318771 
	C397.305145,200.013779 399.607422,192.239700 400.784363,184.454239 
	C402.999969,169.797974 410.617889,159.310257 423.802032,153.492096 
	C437.561066,147.420242 451.184662,148.470398 463.140839,158.446518 
	C480.034027,172.542053 483.523041,192.957947 472.240112,210.673126 
	C466.578796,219.561859 458.268524,225.367493 448.110382,226.995514 
	C432.610016,229.479736 417.576019,232.347519 406.517426,244.692841 
	C403.529205,241.950180 401.010742,239.638657 398.030212,236.903061 
	C403.110016,231.734177 407.849670,226.911407 412.831177,221.830719 
z"/>
<path fill="#E4D4F8" opacity="1.000000" stroke="none" 
	d="
M393.920258,244.407990 
	C394.253082,245.930099 394.909058,247.723160 394.327271,248.330414 
	C382.930603,260.226013 371.389954,271.983582 359.817566,283.832001 
	C354.680115,278.414551 350.283020,273.777802 346.012115,269.274109 
	C357.653351,257.734406 369.900604,245.593933 383.105347,232.504333 
	C386.330811,236.053726 389.998962,240.090271 393.920258,244.407990 
z"/>
<path fill="#DFCDF4" opacity="1.000000" stroke="none" 
	d="
M337.112183,284.147278 
	C338.081573,281.857391 338.927063,279.928345 339.928467,277.643555 
	C343.634918,281.341370 347.038208,284.736786 350.977600,288.667023 
	C344.974213,291.002563 339.406250,293.168762 332.620605,295.808655 
	C334.349518,291.335449 335.668884,287.921753 337.112183,284.147278 
z"/>
<path fill="#E2D0F6" opacity="1.000000" stroke="none" 
	d="
M209.194733,356.422821 
	C209.962021,364.735840 208.161453,372.009247 204.259857,378.853424 
	C200.944275,384.669647 195.810364,387.628937 189.404556,388.569641 
	C186.424759,389.007202 183.674881,388.608948 183.188858,384.743317 
	C181.808929,373.768372 182.896683,363.190887 188.225876,353.293304 
	C188.461075,352.856476 188.757965,352.451172 189.043777,352.043579 
	C192.007034,347.817780 195.498947,343.719879 201.148193,345.002808 
	C206.437668,346.204010 208.284454,350.981873 209.194733,356.422821 
z"/>
<path fill="#DCC9F0" opacity="1.000000" stroke="none" 
	d="
M308.008484,349.081665 
	C309.166382,347.424377 310.038727,345.973724 311.184723,344.787415 
	C314.977661,340.861237 319.396088,340.690887 322.781219,344.917938 
	C325.260223,348.013519 326.847351,351.823364 329.389099,356.294952 
	C320.405396,356.294952 312.927002,356.294952 304.634491,356.294952 
	C305.943390,353.490662 306.895874,351.450012 308.008484,349.081665 
z"/>
<path fill="#E1D0F5" opacity="1.000000" stroke="none" 
	d="
M416.589905,347.041626 
	C421.575165,350.789215 422.805664,356.694336 420.352661,363.259430 
	C417.249786,371.563721 409.549072,375.756317 399.247986,374.256073 
	C400.555603,364.865540 401.913025,355.593414 409.889984,349.106689 
	C411.501617,347.796173 414.067993,347.659760 416.589905,347.041626 
z"/>
<path fill="#DFCDF4" opacity="1.000000" stroke="none" 
	d="
M243.582672,369.507446 
	C239.930389,372.466705 236.509125,375.147217 233.087860,377.827759 
	C232.693054,377.447296 232.298264,377.066833 231.903458,376.686371 
	C232.305832,368.384064 233.565201,360.216949 238.613708,353.274139 
	C239.951279,351.434631 242.846329,350.727692 245.026260,349.500732 
	C246.100510,351.611450 248.335495,353.918030 248.018982,355.794098 
	C247.245575,360.378326 245.292114,364.763458 243.582672,369.507446 
z"/>
<path fill="#DCC9F0" opacity="1.000000" stroke="none" 
	d="
M487.134369,432.614990 
	C485.177979,433.481903 483.366730,433.947479 481.555481,434.413025 
	C481.111359,432.624817 480.126526,430.735016 480.435944,429.088409 
	C480.607971,428.172974 483.832397,426.799774 484.141144,427.119598 
	C485.494293,428.521271 486.284882,430.465973 487.134369,432.614990 
z"/>
<path fill="#DCC9F0" opacity="1.000000" stroke="none" 
	d="
M345.556580,433.773651 
	C343.423279,433.854919 340.882416,434.305664 339.884613,433.269928 
	C339.024170,432.376648 339.415955,429.504211 340.234528,428.064087 
	C340.704712,427.236938 344.298523,427.001160 344.470032,427.389526 
	C345.295898,429.259460 345.435638,431.432404 345.556580,433.773651 
z"/>
<path fill="#E5D5F8" opacity="1.000000" stroke="none" 
	d="
M417.355194,427.232788 
	C418.742889,427.390808 419.765411,427.885406 420.787964,428.380035 
	C420.508087,428.866058 420.228241,429.352081 419.948364,429.838104 
	C418.962250,429.081848 417.976166,428.325623 417.355194,427.232788 
z"/>
</svg>